<?xml version="1.0" standalone="no"?>
<!DOCTYPE svg PUBLIC "-//W3C//DTD SVG 20010904//EN"
 "http://www.w3.org/TR/2001/REC-SVG-20010904/DTD/svg10.dtd">
<svg version="1.0" xmlns="http://www.w3.org/2000/svg"
 width="16.000000pt" height="16.000000pt" viewBox="0 0 16.000000 16.000000"
 preserveAspectRatio="xMidYMid meet">
<metadata>
Created by potrace 1.11, written by Peter Selinger 2001-2013
</metadata>
<g transform="translate(0.000000,16.000000) scale(0.000750,-0.000750)"
fill="#000000" stroke="none">
<path d="M3889 21326 c-2 -2 -53 -7 -112 -10 -59 -4 -113 -9 -120 -11 -7 -2
-39 -6 -72 -9 -33 -4 -71 -8 -85 -10 -14 -3 -59 -10 -100 -16 -364 -58 -805
-204 -1171 -390 -269 -136 -586 -350 -830 -560 -165 -141 -418 -410 -565 -600
-197 -255 -390 -581 -514 -870 -18 -41 -38 -88 -45 -105 -72 -169 -175 -512
-215 -720 -6 -27 -12 -61 -15 -75 -3 -14 -14 -88 -25 -165 -20 -140 -21 -159
-18 -7170 2 -3867 6 -7041 10 -7055 4 -14 14 -70 24 -125 9 -55 23 -129 30
-165 8 -36 17 -76 20 -90 12 -61 78 -290 115 -397 147 -428 377 -851 654
-1203 46 -58 91 -114 102 -125 10 -11 33 -38 52 -60 115 -137 346 -356 527
-501 95 -76 306 -227 361 -259 10 -5 56 -33 103 -62 465 -282 1025 -471 1625
-549 27 -3 65 -9 85 -11 59 -9 13730 -12 13805 -3 39 4 102 11 140 15 39 3 81
8 95 10 14 2 57 9 95 15 291 46 701 162 929 264 17 8 60 27 96 42 105 45 326
161 450 236 454 275 847 631 1172 1064 67 89 248 357 248 367 0 2 22 42 48 88
115 199 228 455 312 707 45 135 117 406 134 502 3 19 8 44 10 55 2 11 9 54 16
95 6 41 13 86 16 100 2 14 6 54 10 90 3 36 7 76 9 90 2 14 7 75 11 135 8 130
8 13381 0 13535 -9 169 -22 284 -51 465 -21 128 -24 142 -41 215 -9 36 -18 76
-20 90 -18 91 -111 382 -175 540 -294 739 -807 1389 -1459 1848 -245 172 -524
325 -785 432 -71 29 -143 58 -160 65 -132 56 -546 168 -705 191 -19 3 -73 11
-118 19 -46 8 -87 14 -90 13 -7 -2 -99 9 -167 19 -42 7 -13639 16 -13646 9z"/>
</g>
</svg>
