<?xml version="1.0" standalone="no"?>
<!DOCTYPE svg PUBLIC "-//W3C//DTD SVG 20010904//EN"
 "http://www.w3.org/TR/2001/REC-SVG-20010904/DTD/svg10.dtd">
<svg version="1.0" xmlns="http://www.w3.org/2000/svg"
 width="16.000000pt" height="16.000000pt" viewBox="0 0 16.000000 16.000000"
 preserveAspectRatio="xMidYMid meet">
<metadata>
Created by potrace 1.11, written by Peter Selinger 2001-2013
</metadata>
<g transform="translate(0.000000,16.000000) scale(0.001132,-0.001132)"
fill="#000000" stroke="none">
<path d="M6897 13394 c-1 -1 -184 -5 -407 -9 -223 -3 -450 -8 -505 -9 -123 -4
-459 -17 -540 -21 -207 -10 -355 -18 -390 -20 -22 -1 -92 -6 -155 -9 -63 -4
-140 -8 -170 -11 -30 -2 -93 -7 -140 -10 -47 -3 -112 -8 -145 -10 -33 -3 -91
-7 -130 -10 -85 -6 -170 -13 -250 -21 -72 -7 -114 -11 -220 -19 -44 -3 -91 -8
-105 -10 -14 -2 -59 -7 -100 -10 -41 -3 -86 -8 -100 -10 -14 -2 -59 -6 -100
-10 -41 -4 -86 -8 -100 -10 -14 -2 -56 -6 -95 -10 -38 -3 -81 -8 -95 -10 -14
-2 -50 -6 -80 -10 -92 -10 -123 -14 -179 -21 -29 -3 -68 -8 -85 -9 -29 -3 -63
-7 -156 -20 -19 -3 -55 -7 -80 -10 -25 -3 -54 -7 -65 -9 -11 -2 -49 -7 -85
-11 -36 -4 -73 -9 -84 -11 -10 -2 -44 -6 -75 -9 -31 -4 -63 -8 -71 -10 -8 -2
-35 -7 -60 -10 -295 -40 -476 -114 -656 -268 -59 -50 -154 -154 -194 -212 -91
-132 -165 -327 -184 -485 -3 -20 -12 -85 -20 -145 -16 -106 -19 -126 -31 -225
-3 -25 -7 -61 -10 -80 -3 -19 -7 -55 -10 -80 -4 -25 -8 -56 -10 -70 -2 -14 -7
-50 -10 -80 -3 -30 -8 -66 -10 -80 -2 -14 -7 -54 -10 -90 -4 -36 -9 -73 -11
-82 -1 -10 -5 -48 -9 -86 -3 -38 -7 -78 -9 -88 -2 -10 -7 -53 -11 -94 -4 -41
-9 -82 -10 -91 -2 -8 -6 -53 -10 -100 -3 -46 -8 -91 -10 -99 -2 -8 -7 -49 -10
-90 -4 -41 -8 -86 -10 -100 -2 -14 -6 -63 -10 -110 -4 -47 -8 -101 -10 -120
-2 -19 -6 -73 -10 -120 -3 -47 -8 -103 -10 -125 -9 -85 -23 -265 -40 -540 -3
-44 -8 -118 -11 -165 -6 -89 -9 -147 -19 -345 -3 -66 -8 -154 -10 -195 -2 -41
-7 -154 -10 -250 -4 -96 -8 -211 -10 -255 -5 -132 -18 -938 -18 -1110 0 -348
14 -1045 28 -1370 4 -82 8 -193 10 -244 6 -152 29 -563 40 -706 3 -33 7 -98
10 -145 4 -77 10 -146 20 -270 2 -25 6 -81 10 -125 3 -44 7 -102 10 -130 7
-73 16 -184 20 -230 6 -71 31 -317 40 -395 2 -19 7 -64 10 -100 3 -36 7 -81
10 -100 2 -19 7 -64 11 -100 3 -36 8 -72 9 -81 2 -8 6 -42 9 -75 4 -32 11 -93
16 -134 11 -84 16 -130 25 -210 3 -30 8 -62 10 -70 2 -8 7 -42 10 -75 3 -33
10 -87 15 -120 5 -33 12 -83 15 -111 3 -28 7 -59 9 -70 2 -10 12 -73 21 -139
10 -66 21 -128 27 -138 5 -9 7 -17 4 -17 -3 0 8 -37 25 -82 61 -171 166 -329
296 -445 41 -38 82 -72 91 -77 9 -5 19 -12 22 -16 9 -11 105 -66 171 -97 85
-40 216 -79 299 -89 32 -3 94 -13 130 -19 8 -1 40 -6 70 -10 30 -3 66 -8 80
-10 14 -2 45 -7 70 -10 25 -3 56 -8 70 -10 14 -2 68 -9 120 -15 52 -6 105 -13
118 -15 13 -2 53 -7 90 -11 37 -3 75 -8 86 -10 10 -2 44 -6 75 -9 31 -3 70 -8
86 -10 128 -16 180 -21 280 -30 39 -3 82 -8 97 -11 15 -3 49 -7 75 -9 48 -4
134 -13 208 -20 22 -2 72 -7 110 -10 39 -3 88 -7 110 -10 49 -5 162 -15 230
-20 28 -2 84 -7 125 -10 348 -28 405 -32 545 -40 55 -3 129 -7 165 -10 107 -7
279 -16 380 -20 52 -2 158 -7 235 -11 725 -33 1962 -38 2715 -9 47 2 164 6
260 10 96 3 200 8 230 10 30 2 109 6 175 9 66 4 149 9 185 11 36 2 108 7 160
10 52 3 122 8 155 10 33 2 98 7 145 10 47 3 105 8 130 10 25 2 83 7 130 10 47
3 105 8 130 10 25 2 79 7 120 10 41 4 86 8 100 10 14 2 63 6 110 10 47 4 96 8
110 10 14 2 57 6 95 10 39 3 90 8 115 11 25 2 65 6 90 9 74 7 243 26 280 30
19 3 58 7 85 10 28 3 66 8 85 10 19 3 58 7 85 10 28 4 61 8 75 10 14 2 54 6
90 10 36 3 90 10 120 15 30 5 78 12 105 15 28 3 61 8 75 10 14 2 61 9 105 14
44 6 100 13 125 16 25 3 56 8 70 11 14 3 45 8 70 11 130 16 326 95 452 182 76
53 185 154 228 211 14 18 30 38 35 44 64 70 171 309 190 426 4 25 9 54 11 64
2 11 6 40 9 65 3 25 7 55 9 67 2 12 7 45 11 74 4 29 8 60 10 69 1 9 6 41 9 72
4 31 8 65 10 75 2 11 7 48 11 84 3 36 8 72 10 80 2 8 7 40 10 70 3 30 13 109
21 175 14 119 17 143 29 260 4 33 8 71 10 85 2 14 7 57 11 95 3 39 8 79 10 90
2 11 6 54 9 96 3 42 8 87 10 100 3 13 7 60 10 104 3 44 7 91 10 105 2 14 7 63
10 110 4 47 8 96 10 110 2 14 6 63 10 110 3 47 8 112 11 145 11 130 13 153 20
250 3 55 8 123 9 150 2 28 6 91 9 140 10 132 15 228 21 340 3 55 7 138 10 185
11 206 18 390 31 860 15 502 8 1684 -11 2130 -3 52 -7 160 -10 240 -3 80 -8
186 -10 235 -3 50 -7 135 -10 190 -6 121 -14 241 -20 315 -3 30 -7 100 -10
155 -3 55 -7 123 -10 150 -2 28 -7 88 -11 135 -3 47 -7 101 -9 120 -2 19 -6
76 -10 125 -3 50 -8 104 -10 120 -2 17 -7 66 -10 110 -3 44 -8 91 -10 105 -2
14 -6 65 -10 114 -4 50 -8 97 -10 106 -2 9 -6 49 -10 90 -3 41 -8 89 -10 105
-7 56 -15 130 -20 190 -3 33 -8 76 -11 95 -4 19 -8 54 -9 78 -2 23 -6 59 -9
80 -6 43 -13 96 -21 167 -9 80 -14 118 -41 320 -14 105 -28 208 -30 230 -6 52
-13 102 -19 129 -2 12 -6 39 -9 61 -11 79 -38 182 -70 262 -97 238 -279 437
-509 558 -79 42 -200 88 -262 100 -47 9 -344 53 -405 60 -30 3 -80 10 -110 15
-30 5 -80 11 -111 15 -31 3 -66 7 -77 10 -11 2 -49 6 -84 10 -35 3 -74 8 -88
10 -14 2 -50 6 -80 10 -30 3 -71 8 -90 10 -92 11 -248 29 -360 40 -36 3 -81 8
-100 10 -57 7 -118 14 -245 25 -66 6 -138 12 -160 15 -48 5 -141 14 -221 20
-33 2 -90 7 -129 10 -269 22 -304 25 -537 40 -40 2 -113 7 -163 11 -49 3 -124
7 -165 9 -41 2 -127 7 -190 10 -120 7 -174 10 -455 20 -93 4 -206 8 -250 10
-153 6 -1264 23 -1268 19z"/>
</g>
</svg>
